<?xml version="1.0" encoding="UTF-8"?>
<svg id="Layer_2" data-name="Layer 2" xmlns="http://www.w3.org/2000/svg" viewBox="0 0 185.1 111.24">
  <g id="Layer_1-2" data-name="Layer 1">
    <g>
      <g>
        <path d="M63.51,105.11c-8.45-3.06-31.71-17.84-31.77-26.46,39.01,16.23,84.82,20.25,123.98-1,1.79-.15,2.71,2.06,1.31,3.52-20.93,28.21-61.45,37.44-93.52,23.94Z" fill="#603913"/>
        <path d="M13.12,60.18c5.36,15.34,4.15,36.61-2.98,51.07,3.99-20.09,1.7-39.76-10.14-56.79C38.18,51.21,72.96,31.2,94.77,0c21.04,30.34,54.05,50.02,90.33,54.37-34.18,1.41-68.02-15.74-89.99-41.64-20.54,25.12-50.21,42.19-81.99,47.44Z" fill="#603913"/>
        <path d="M53.69,81.56c26.52-38.45,48.99,7.43,74.83-33.52-23.11,46.3-40.29,5.07-74.83,33.52Z" fill="#603913"/>
      </g>
      <path d="M53.7,76.39c-.02-.35.2-.79.36-1.15.73-1.56,1.55-3.09,2.46-4.56,2.15-3.35,4.54-6.73,7.9-8.96,7.73-5.46,17.95-3.58,26.66-6.21,5.36-1.81,9.38-5.33,12.05-10.3,1.15-2.08,1.88-4.16,2.83-6.28.35-.82.86-1.75,1.1-1.78.03,0,.05,0,.07.01,0-.02.07.09.06.1.02.1.03.18.02.3-.31,2.12-1.02,4.25-1.75,6.29-10.95,28.55-29.39,8.38-47.95,29.02-.99.91-2.83,3.34-3.73,3.6-.04,0-.06-.02-.08-.05v-.03Z" fill="#a97c50" stroke="#603913" stroke-miterlimit="10" stroke-width=".75"/>
    </g>
  </g>
</svg>