<?xml version="1.0" encoding="UTF-8"?>
<svg id="Layer_2" data-name="Layer 2" xmlns="http://www.w3.org/2000/svg" viewBox="0 0 392.78 250.63">
  <g id="Layer_1-2" data-name="Layer 1">
    <g>
      <path d="M70.23,177.35c-1.06-1.28-1.01-3.15.12-4.37,1.24-1.34,3.34-1.43,4.68-.18,76.19,41.77,168.46,41.69,244.57-.22,1.22-1.13,3.09-1.18,4.37-.12,1.41,1.17,1.61,3.26.44,4.67-6.54,7.9-13.8,15.17-21.69,21.73-70.14,58.27-174.23,48.64-232.5-21.5Z" fill="#fdfaf2"/>
      <g id="HATCH">
        <path d="M199.59,1.37c-1.07-1.48-3.15-1.81-4.63-.74-.27.2-.52.44-.72.71C148.2,63.59,77.23,102.58,0,108.06c26.97,42.33,35.25,93.93,22.87,142.57,16.33-41.23,17.56-86.91,3.48-128.97,66.58-10.81,127.07-45.16,170.45-96.81,47.41,58.8,120.65,90.61,195.98,85.13-77.17-6.23-147.76-45.91-193.19-108.6Z" fill="#fdfaf2" fill-rule="evenodd"/>
      </g>
      <g>
        <path d="M122.52,181.97c53.99-78.28,99.74,15.13,152.34-68.24-47.05,94.26-82.03,10.31-152.34,68.24Z" fill="#fdfaf2"/>
        <path d="M122.52,171.45c-.04-.71.4-1.61.72-2.33,1.48-3.18,3.16-6.3,5-9.27,4.39-6.83,9.23-13.7,16.08-18.24,15.74-11.12,36.55-7.28,54.28-12.65,10.91-3.68,19.1-10.85,24.54-20.97,2.33-4.23,3.83-8.47,5.77-12.79.72-1.66,1.75-3.57,2.24-3.62.05,0,.1,0,.14.03,0-.03.14.18.13.19.05.2.06.36.05.61-.63,4.31-2.08,8.65-3.55,12.8-22.29,58.12-59.84,17.06-97.62,59.07-2.02,1.86-5.76,6.8-7.59,7.34-.07,0-.13-.05-.16-.11l-.02-.05Z" fill="#fdfaf2"/>
      </g>
    </g>
  </g>
</svg>